# xmcd
#
# Track frame offsets:
#	150
#	18527
#	35387
#	52950
#	71485
#	87787
#	104885
#	120087
#	134865
#	148897
#	164042
#	182422
#	199285
#	216847
#	235382
#	251685
#	268782
#	283982
#	298760
#	312792
#
# Disc length: 4370 seconds
#
# Revision: 2
# Processed by: cddbd v1.5.2PL0 Copyright (c) Steve Scherf et al.
# Submitted via: audiograbber 1.83.01
#
DISCID=42111014
DTITLE=Various Artist - THC0202
DYEAR=1900
DGENRE=Karaoke
TTITLE0=George Strait W - Vocals - Run W - Vocals
TTITLE1=Brooks and Dunn W - Vocals - The long goodbye W - Vocals
TTITLE2=Garth Brooks W - Vocals - Wrapped up in you W - Vocals
TTITLE3=Martina McBride W - Vocals - Blessed W - Vocals
TTITLE4=Tommy Cochran W - Vocals - I cry W - Vocals
TTITLE5=Rascal Flatts W - Vocals - I'm movin' on W - Vocals
TTITLE6=Blake Shelton W - Vocals - All over me W - Vocals
TTITLE7=Cyndi Thompson W - Vocals - I always liked that best W - Vocals
TTITLE8=George Jones and Garth Brooks W - Vocals - Beer run W - Vocals
TTITLE9=Lee Ann Womack W - Vocals - Does my ring burn your finger W - Vocals
TTITLE10=Strait, George - Run
TTITLE11=Brooks and Dunn - The Long Goodbye
TTITLE12=Brooks, Garth - Wrapped Up In You
TTITLE13=McBride, Martina - Blessed
TTITLE14=Cochran, Tommy - I Cry
TTITLE15=Rascal Flatts - I'm Movin' On
TTITLE16=Shelton, Blake - All Over Me
TTITLE17=Thompson, Cyndi - I Always Likes That Best
TTITLE18=Jones, George  and  Brooks, Garth - Beer Run
TTITLE19=Womack, Lee Ann - Does My Ring Burn Your Finger
EXTD=
EXTT0=
EXTT1=
EXTT2=
EXTT3=
EXTT4=
EXTT5=
EXTT6=
EXTT7=
EXTT8=
EXTT9=
EXTT10=
EXTT11=
EXTT12=
EXTT13=
EXTT14=
EXTT15=
EXTT16=
EXTT17=
EXTT18=
EXTT19=
PLAYORDER=
